<svg width="128" height="35" viewBox="0 0 128 35" fill="none" xmlns="http://www.w3.org/2000/svg">
<path d="M35 0H0V35H35V0Z" fill="#06C270"/>
<path d="M29.939 3.59799L20.5835 21.693V30.625H14V21.693L4.64447 3.59799H12.1135L17.3495 14.917L22.547 3.59799H29.939Z" fill="black"/>
<path d="M48.454 30.877C46.732 30.877 45.178 30.5095 43.792 29.7745C42.427 29.0395 41.3455 27.9895 40.5475 26.6245C39.7705 25.2595 39.382 23.6635 39.382 21.8365C39.382 20.0305 39.781 18.445 40.579 17.08C41.377 15.694 42.469 14.6335 43.855 13.8985C45.241 13.1635 46.795 12.796 48.517 12.796C50.239 12.796 51.793 13.1635 53.179 13.8985C54.565 14.6335 55.657 15.694 56.455 17.08C57.253 18.445 57.652 20.0305 57.652 21.8365C57.652 23.6425 57.2425 25.2385 56.4235 26.6245C55.6255 27.9895 54.523 29.0395 53.116 29.7745C51.73 30.5095 50.176 30.877 48.454 30.877ZM48.454 26.215C49.483 26.215 50.3545 25.837 51.0685 25.081C51.8035 24.325 52.171 23.2435 52.171 21.8365C52.171 20.4295 51.814 19.348 51.1 18.592C50.407 17.836 49.546 17.458 48.517 17.458C47.467 17.458 46.5955 17.836 45.9025 18.592C45.2095 19.327 44.863 20.4085 44.863 21.8365C44.863 23.2435 45.199 24.325 45.871 25.081C46.564 25.837 47.425 26.215 48.454 26.215ZM77.8661 13.048V30.625H72.4797V28.231C71.9337 29.008 71.1882 29.638 70.2432 30.121C69.3192 30.583 68.2902 30.814 67.1562 30.814C65.8122 30.814 64.6257 30.52 63.5967 29.932C62.5677 29.323 61.7697 28.4515 61.2027 27.3175C60.6357 26.1835 60.3522 24.85 60.3522 23.317V13.048H65.7072V22.5925C65.7072 23.7685 66.0117 24.682 66.6207 25.333C67.2297 25.984 68.0487 26.3095 69.0777 26.3095C70.1277 26.3095 70.9572 25.984 71.5662 25.333C72.1752 24.682 72.4797 23.7685 72.4797 22.5925V13.048H77.8661ZM88.886 30.877C87.3527 30.877 85.9877 30.6145 84.7907 30.0895C83.5937 29.5645 82.6487 28.8505 81.9557 27.9475C81.2627 27.0235 80.8742 25.9945 80.7902 24.8605H86.1137C86.1767 25.4695 86.4602 25.963 86.9642 26.341C87.4682 26.719 88.088 26.908 88.823 26.908C89.495 26.908 90.0095 26.782 90.3665 26.53C90.7445 26.257 90.9335 25.9105 90.9335 25.4905C90.9335 24.9865 90.671 24.619 90.146 24.388C89.621 24.136 88.7705 23.863 87.5945 23.569C86.3342 23.275 85.2842 22.9705 84.4442 22.6555C83.6042 22.3195 82.8797 21.805 82.2707 21.112C81.6617 20.398 81.3572 19.4425 81.3572 18.2455C81.3572 17.2375 81.6302 16.324 82.1762 15.505C82.7432 14.665 83.5622 14.0035 84.6332 13.5205C85.7252 13.0375 87.0167 12.796 88.508 12.796C90.713 12.796 92.4455 13.342 93.7055 14.434C94.9865 15.526 95.7215 16.975 95.9105 18.781H90.9335C90.8495 18.172 90.5765 17.689 90.1145 17.332C89.6735 16.975 89.0855 16.7965 88.3505 16.7965C87.7205 16.7965 87.2372 16.9225 86.9012 17.1745C86.5652 17.4055 86.3972 17.731 86.3972 18.151C86.3972 18.655 86.6597 19.033 87.1847 19.285C87.731 19.537 88.571 19.789 89.705 20.041C91.007 20.377 92.0675 20.713 92.8865 21.049C93.7055 21.364 94.4195 21.889 95.0285 22.624C95.6585 23.338 95.984 24.304 96.005 25.522C96.005 26.551 95.711 27.475 95.123 28.294C94.556 29.092 93.7265 29.722 92.6345 30.184C91.5635 30.646 90.314 30.877 88.886 30.877ZM115.869 21.553C115.869 22.057 115.838 22.582 115.775 23.128H103.584C103.668 24.22 104.015 25.06 104.624 25.648C105.254 26.215 106.02 26.4985 106.923 26.4985C108.267 26.4985 109.202 25.9315 109.727 24.7975H115.46C115.166 25.9525 114.63 26.992 113.853 27.916C113.097 28.84 112.142 29.5645 110.987 30.0895C109.832 30.6145 108.54 30.877 107.112 30.877C105.39 30.877 103.857 30.5095 102.513 29.7745C101.169 29.0395 100.119 27.9895 99.3632 26.6245C98.6072 25.2595 98.2292 23.6635 98.2292 21.8365C98.2292 20.0095 98.5967 18.4135 99.3317 17.0485C100.088 15.6835 101.138 14.6335 102.482 13.8985C103.826 13.1635 105.369 12.796 107.112 12.796C108.813 12.796 110.325 13.153 111.648 13.867C112.971 14.581 114 15.5995 114.735 16.9225C115.491 18.2455 115.869 19.789 115.869 21.553ZM110.357 20.1355C110.357 19.2115 110.042 18.4765 109.412 17.9305C108.782 17.3845 107.994 17.1115 107.049 17.1115C106.146 17.1115 105.38 17.374 104.75 17.899C104.141 18.424 103.763 19.1695 103.616 20.1355H110.357ZM127.531 17.521H124.633V30.625H119.247V17.521H117.294V13.048H119.247V12.544C119.247 10.381 119.866 8.74302 121.105 7.63002C122.344 6.49602 124.161 5.92902 126.555 5.92902C126.954 5.92902 127.248 5.93952 127.437 5.96052V10.528C126.408 10.465 125.683 10.612 125.263 10.969C124.843 11.326 124.633 11.9665 124.633 12.8905V13.048H127.531V17.521Z" fill="#FAFAFC"/>
</svg>
