<svg width="60" height="54" viewBox="0 0 60 54" fill="none" xmlns="http://www.w3.org/2000/svg">
<path fill-rule="evenodd" clip-rule="evenodd" d="M44.817 0C48.84 0 52.71 1.59 55.557 4.443C58.407 7.29 60 11.13 60 15.15V38.85C60 47.22 53.19 54 44.817 54H15.18C6.807 54 0 47.22 0 38.85V15.15C0 6.78 6.777 0 15.18 0H44.817ZM49.59 19.6203L49.83 19.3803C50.547 18.5103 50.547 17.2503 49.797 16.3803C49.38 15.9333 48.807 15.6603 48.21 15.6003C47.58 15.5673 46.98 15.7803 46.527 16.2003L33 27.0003C31.26 28.4433 28.767 28.4433 27 27.0003L13.5 16.2003C12.567 15.5103 11.277 15.6003 10.5 16.4103C9.68997 17.2203 9.59997 18.5103 10.287 19.4103L10.68 19.8003L24.33 30.4503C26.01 31.7703 28.047 32.4903 30.18 32.4903C32.307 32.4903 34.38 31.7703 36.057 30.4503L49.59 19.6203Z" fill="#DDE5E9"/>
</svg>
