<svg width="40" height="40" viewBox="0 0 40 40" fill="none" xmlns="http://www.w3.org/2000/svg">
<g clip-path="url(#clip0)">
<path d="M29.6693 12.5058C30.1184 13.7627 29.85 15.2366 28.8245 16.2622C27.4189 17.6679 25.1437 17.6679 23.7379 16.2621C22.3323 14.8565 22.3319 12.5814 23.7379 11.1754C24.7584 10.1549 26.2328 9.88001 27.4942 10.3307L37.825 0L15.2686 4.17712L8.93903 18.419C9.32333 18.8033 20.2346 29.7146 21.5812 31.0612L21.5812 31.0611L35.823 24.7315L40.0001 2.1752L29.6693 12.5058Z" fill="#F2F2F5"/>
<path d="M5.08671 17.9578L0 23.0445L16.9556 40.0001L22.0423 34.9134C20.8665 33.7376 5.93724 18.8083 5.08671 17.9578Z" fill="#F2F2F5"/>
<path d="M25.0823 13.7189C25.0823 14.3815 25.6187 14.9179 26.2812 14.9179C26.6015 14.9179 26.9025 14.7931 27.1289 14.5667L27.129 14.5666C27.5975 14.0982 27.5975 13.3397 27.129 12.871C26.9025 12.6447 26.6014 12.5199 26.2812 12.5199C25.6186 12.52 25.0823 13.0562 25.0823 13.7189Z" fill="#F2F2F5"/>
</g>
<defs>
<clipPath id="clip0">
<rect width="40" height="40" fill="white"/>
</clipPath>
</defs>
</svg>
